<svg xmlns="http://www.w3.org/2000/svg" xmlns:xlink="http://www.w3.org/1999/xlink" xmlns:lucid="lucid" width="780" height="420"><g transform="translate(-370 -660)" lucid:page-tab-id="mg1OUHtg46z8"><path d="M465 743c0-1.66 1.34-3 3-3h154c1.66 0 3 1.34 3 3v114c0 1.66-1.34 3-3 3H468c-1.66 0-3-1.34-3-3z" stroke="#b2b2b2" stroke-width="4" fill="#e5e5e5"/><use xlink:href="#a" transform="matrix(1,0,0,1,470,745) translate(41.04938271604938 60.80555555555556)"/><path d="M885 743c0-1.66 1.34-3 3-3h154c1.66 0 3 1.34 3 3v114c0 1.66-1.34 3-3 3H888c-1.66 0-3-1.34-3-3z" stroke="#b2b2b2" stroke-width="4" fill="#e5e5e5"/><use xlink:href="#b" transform="matrix(1,0,0,1,890,745) translate(41.04938271604938 60.80555555555556)"/><path d="M705.6 742.65c.77-1.46 2.74-2.65 4.4-2.65h90c1.66 0 3.63 1.2 4.4 2.65l29.2 54.7c.77 1.46.77 3.84 0 5.3l-29.2 54.7c-.77 1.46-2.74 2.65-4.4 2.65h-90c-1.66 0-3.63-1.2-4.4-2.65l-29.2-54.7c-.77-1.46-.77-3.84 0-5.3z" stroke="#b2b2b2" stroke-width="4" fill="#e5e5e5"/><use xlink:href="#c" transform="matrix(1,0,0,1,680,745) translate(21.73648148148144 60.80555555555556)"/><use xlink:href="#d" transform="matrix(1,0,0,1,680,745) translate(48.89697530864194 60.80555555555556)"/><use xlink:href="#e" transform="matrix(1,0,0,1,680,745) translate(78.02660493827157 60.80555555555556)"/><use xlink:href="#f" transform="matrix(1,0,0,1,680,745) translate(98.39697530864194 60.80555555555556)"/><use xlink:href="#g" transform="matrix(1,0,0,1,680,745) translate(114.69327160493825 60.80555555555556)"/><path d="M425 683c0-1.66 1.34-3 3-3h234c1.66 0 3 1.34 3 3v54c0 1.66-1.34 3-3 3H428c-1.66 0-3-1.34-3-3z" stroke="#000" stroke-opacity="0" stroke-width="2" fill="#fff" fill-opacity="0"/><use xlink:href="#h" transform="matrix(1,0,0,1,430,685) translate(43.64999999999999 30.025)"/><use xlink:href="#i" transform="matrix(1,0,0,1,430,685) translate(110.45 30.025)"/><use xlink:href="#j" transform="matrix(1,0,0,1,430,685) translate(137.35000000000002 30.025)"/><use xlink:href="#k" transform="matrix(1,0,0,1,430,685) translate(157.35000000000002 30.025)"/><path d="M845 683c0-1.66 1.34-3 3-3h234c1.66 0 3 1.34 3 3v54c0 1.66-1.34 3-3 3H848c-1.66 0-3-1.34-3-3z" stroke="#000" stroke-opacity="0" stroke-width="2" fill="#fff" fill-opacity="0"/><use xlink:href="#l" transform="matrix(1,0,0,1,850,685) translate(56.599999999999994 30.025)"/><use xlink:href="#i" transform="matrix(1,0,0,1,850,685) translate(97.5 30.025)"/><use xlink:href="#j" transform="matrix(1,0,0,1,850,685) translate(124.4 30.025)"/><use xlink:href="#k" transform="matrix(1,0,0,1,850,685) translate(144.4 30.025)"/><path d="M628 800h27.4" stroke="#303030" stroke-width="2" fill="none"/><path d="M628.03 801H627v-2h1.03z" fill="#303030"/><path d="M670.66 800l-14.26 4.64v-9.28z" stroke="#303030" stroke-width="2" fill="#303030"/><path d="M837.1 800h27.4" stroke="#303030" stroke-width="2" fill="none"/><path d="M837.13 801h-1.08l.1-1.92-.02-.08h1z" fill="#303030"/><path d="M879.76 800l-14.26 4.64v-9.28z" stroke="#303030" stroke-width="2" fill="#303030"/><path d="M635 683c0-1.66 1.34-3 3-3h234c1.66 0 3 1.34 3 3v54c0 1.66-1.34 3-3 3H638c-1.66 0-3-1.34-3-3z" stroke="#000" stroke-opacity="0" stroke-width="2" fill="#fff" fill-opacity="0"/><use xlink:href="#m" transform="matrix(1,0,0,1,640,685) translate(40.27499999999999 30.025)"/><use xlink:href="#n" transform="matrix(1,0,0,1,640,685) translate(119.025 30.025)"/><path d="M910 953c0-1.66 1.34-3 3-3h214c1.66 0 3 1.34 3 3v94c0 1.66-1.34 3-3 3H913c-1.66 0-3-1.34-3-3z" stroke="#b2b2b2" stroke-width="4" fill="#e5e5e5"/><use xlink:href="#o" transform="matrix(1,0,0,1,915,955) translate(7.561728395061721 50.49305555555556)"/><use xlink:href="#p" transform="matrix(1,0,0,1,915,955) translate(103.03086419753086 50.49305555555556)"/><path d="M690.28 942.46c.95-1.36 3.06-2.46 4.72-2.46h120c1.66 0 3.77 1.1 4.72 2.46l38.56 55.08c.95 1.36.95 3.56 0 4.92l-38.56 55.08c-.95 1.36-3.06 2.46-4.72 2.46H695c-1.66 0-3.77-1.1-4.72-2.46l-38.56-55.08c-.95-1.36-.95-3.56 0-4.92z" stroke="#b2b2b2" stroke-width="4" fill="#e5e5e5"/><use xlink:href="#c" transform="matrix(1,0,0,1,655,945) translate(18.285864197530834 60.80555555555556)"/><use xlink:href="#d" transform="matrix(1,0,0,1,655,945) translate(45.446358024691335 60.80555555555556)"/><use xlink:href="#q" transform="matrix(1,0,0,1,655,945) translate(74.57598765432097 60.80555555555556)"/><use xlink:href="#r" transform="matrix(1,0,0,1,655,945) translate(168.1438888888889 60.80555555555556)"/><path d="M455 893c0-1.66 1.34-3 3-3h149c1.66 0 3 1.34 3 3v54c0 1.66-1.34 3-3 3H458c-1.66 0-3-1.34-3-3z" stroke="#000" stroke-opacity="0" stroke-width="2" fill="#fff" fill-opacity="0"/><g><use xlink:href="#h" transform="matrix(1,0,0,1,460,895) translate(17.14999999999999 30.025)"/><use xlink:href="#s" transform="matrix(1,0,0,1,460,895) translate(83.95 30.025)"/></g><path d="M910 893c0-1.66 1.34-3 3-3h124c1.66 0 3 1.34 3 3v54c0 1.66-1.34 3-3 3H913c-1.66 0-3-1.34-3-3z" stroke="#000" stroke-opacity="0" stroke-width="2" fill="#fff" fill-opacity="0"/><g><use xlink:href="#l" transform="matrix(1,0,0,1,915,895) translate(17.599999999999994 30.025)"/><use xlink:href="#s" transform="matrix(1,0,0,1,915,895) translate(58.5 30.025)"/></g><path d="M613 1000h17.58" stroke="#303030" stroke-width="2" fill="none"/><path d="M613.03 1001H612v-2h1.03z" fill="#303030"/><path d="M645.84 1000l-14.26 4.64v-9.28z" stroke="#303030" stroke-width="2" fill="#303030"/><path d="M861.92 1000h27.58" stroke="#303030" stroke-width="2" fill="none"/><path d="M861.95 1001h-1.15l.2-1.72-.1-.28h1.05z" fill="#303030"/><path d="M904.76 1000l-14.26 4.64v-9.28z" stroke="#303030" stroke-width="2" fill="#303030"/><path d="M390 953c0-1.66 1.34-3 3-3h214c1.66 0 3 1.34 3 3v94c0 1.66-1.34 3-3 3H393c-1.66 0-3-1.34-3-3z" stroke="#b2b2b2" stroke-width="4" fill="#e5e5e5"/><g><use xlink:href="#t" transform="matrix(1,0,0,1,395,955) translate(33.669753086419746 50.49305555555556)"/><use xlink:href="#u" transform="matrix(1,0,0,1,395,955) translate(104.55864197530865 50.49305555555556)"/></g><defs><path fill="#303030" d="M26 75v-336h71v23H56V52h41v23H26" id="v"/><path fill="#303030" d="M27 0v-27h64v-190l-56 39v-29l58-41h29v221h61V0H27" id="w"/><path fill="#303030" d="M68-38c1 34 0 65-14 84H32c9-13 17-26 17-46H33v-38h35" id="x"/><path fill="#303030" d="M101-251c82-7 93 87 43 132L82-64C71-53 59-42 53-27h129V0H18c2-99 128-94 128-182 0-28-16-43-45-43s-46 15-49 41l-32-3c6-41 34-60 81-64" id="y"/><path fill="#303030" d="M126-127c33 6 58 20 58 59 0 88-139 92-164 29-3-8-5-16-6-25l32-3c6 27 21 44 54 44 32 0 52-15 52-46 0-38-36-46-79-43v-28c39 1 72-4 72-42 0-27-17-43-46-43-28 0-47 15-49 41l-32-3c6-42 35-63 81-64 48-1 79 21 79 65 0 36-21 52-52 59" id="z"/><path fill="#303030" d="M3 75V52h41v-290H3v-23h71V75H3" id="A"/><g id="a"><use transform="matrix(0.06790123456790124,0,0,0.06790123456790124,0,0)" xlink:href="#v"/><use transform="matrix(0.06790123456790124,0,0,0.06790123456790124,6.790123456790124,0)" xlink:href="#w"/><use transform="matrix(0.06790123456790124,0,0,0.06790123456790124,20.370370370370374,0)" xlink:href="#x"/><use transform="matrix(0.06790123456790124,0,0,0.06790123456790124,27.160493827160497,0)" xlink:href="#y"/><use transform="matrix(0.06790123456790124,0,0,0.06790123456790124,40.74074074074075,0)" xlink:href="#x"/><use transform="matrix(0.06790123456790124,0,0,0.06790123456790124,47.530864197530875,0)" xlink:href="#z"/><use transform="matrix(0.06790123456790124,0,0,0.06790123456790124,61.11111111111112,0)" xlink:href="#A"/></g><path fill="#303030" d="M155-56V0h-30v-56H8v-25l114-167h33v167h35v25h-35zm-30-156c-27 46-58 90-88 131h88v-131" id="B"/><path fill="#303030" d="M54-142c48-35 137-8 131 61C196 18 31 33 14-55l32-4c7 23 22 37 52 37 35-1 51-22 54-58 4-55-73-65-99-34H22l8-134h141v27H59" id="C"/><path fill="#303030" d="M110-160c48 1 74 30 74 79 0 53-28 85-80 85-65 0-83-55-86-122-5-90 50-162 133-122 14 7 22 21 27 39l-31 6c-5-40-67-38-82-6-9 19-15 44-15 74 11-20 30-34 60-33zm-7 138c34 0 49-23 49-58s-16-56-50-56c-29 0-50 16-49 49 1 36 15 65 50 65" id="D"/><g id="b"><use transform="matrix(0.06790123456790124,0,0,0.06790123456790124,0,0)" xlink:href="#v"/><use transform="matrix(0.06790123456790124,0,0,0.06790123456790124,6.790123456790124,0)" xlink:href="#B"/><use transform="matrix(0.06790123456790124,0,0,0.06790123456790124,20.370370370370374,0)" xlink:href="#x"/><use transform="matrix(0.06790123456790124,0,0,0.06790123456790124,27.160493827160497,0)" xlink:href="#C"/><use transform="matrix(0.06790123456790124,0,0,0.06790123456790124,40.74074074074075,0)" xlink:href="#x"/><use transform="matrix(0.06790123456790124,0,0,0.06790123456790124,47.530864197530875,0)" xlink:href="#D"/><use transform="matrix(0.06790123456790124,0,0,0.06790123456790124,61.11111111111112,0)" xlink:href="#A"/></g><path fill="#303030" d="M72 4L0-261h28L100 4H72" id="E"/><path fill="#303030" d="M100-194c63 0 86 42 84 106H49c0 40 14 67 53 68 26 1 43-12 49-29l28 8c-11 28-37 45-77 45C44 4 14-33 15-96c1-61 26-98 85-98zm52 81c6-60-76-77-97-28-3 7-6 17-6 28h103" id="F"/><g id="c"><use transform="matrix(0.06790123456790124,0,0,0.06790123456790124,0,0)" xlink:href="#E"/><use transform="matrix(0.06790123456790124,0,0,0.06790123456790124,6.790123456790124,0)" xlink:href="#F"/></g><path fill="#303030" d="M16-82v-28h88v28H16" id="G"/><path fill="#303030" d="M18-27v-27l151-64-151-65v-27l175 74v36" id="H"/><g id="d"><use transform="matrix(0.06790123456790124,0,0,0.06790123456790124,0,0)" xlink:href="#G"/><use transform="matrix(0.06790123456790124,0,0,0.06790123456790124,8.080246913580249,0)" xlink:href="#H"/></g><use transform="matrix(0.06790123456790124,0,0,0.06790123456790124,0,0)" xlink:href="#F" id="e"/><path fill="#303030" d="M80-196l47-18 7 23-49 13 32 44-20 13-27-46-27 45-21-12 33-44-49-13 8-23 47 19-2-53h23" id="I"/><use transform="matrix(0.06790123456790124,0,0,0.06790123456790124,0,0)" xlink:href="#I" id="f"/><use transform="matrix(0.06790123456790124,0,0,0.06790123456790124,0,0)" xlink:href="#y" id="g"/><path fill="#303030" d="M140-251c81 0 123 46 123 126C263-46 219 4 140 4 59 4 17-45 17-125s42-126 123-126zm0 227c63 0 89-41 89-101s-29-99-89-99c-61 0-89 39-89 99S79-25 140-24" id="J"/><path fill="#303030" d="M114-163C36-179 61-72 57 0H25l-1-190h30c1 12-1 29 2 39 6-27 23-49 58-41v29" id="K"/><path fill="#303030" d="M24-231v-30h32v30H24zM24 0v-190h32V0H24" id="L"/><path fill="#303030" d="M177-190C167-65 218 103 67 71c-23-6-38-20-44-43l32-5c15 47 100 32 89-28v-30C133-14 115 1 83 1 29 1 15-40 15-95c0-56 16-97 71-98 29-1 48 16 59 35 1-10 0-23 2-32h30zM94-22c36 0 50-32 50-73 0-42-14-75-50-75-39 0-46 34-46 75s6 73 46 73" id="M"/><path fill="#303030" d="M117-194c89-4 53 116 60 194h-32v-121c0-31-8-49-39-48C34-167 62-67 57 0H25l-1-190h30c1 10-1 24 2 32 11-22 29-35 61-36" id="N"/><path fill="#303030" d="M141-36C126-15 110 5 73 4 37 3 15-17 15-53c-1-64 63-63 125-63 3-35-9-54-41-54-24 1-41 7-42 31l-33-3c5-37 33-52 76-52 45 0 72 20 72 64v82c-1 20 7 32 28 27v20c-31 9-61-2-59-35zM48-53c0 20 12 33 32 33 41-3 63-29 60-74-43 2-92-5-92 41" id="O"/><path fill="#303030" d="M24 0v-261h32V0H24" id="P"/><g id="h"><use transform="matrix(0.05,0,0,0.05,0,0)" xlink:href="#J"/><use transform="matrix(0.05,0,0,0.05,14,0)" xlink:href="#K"/><use transform="matrix(0.05,0,0,0.05,19.95,0)" xlink:href="#L"/><use transform="matrix(0.05,0,0,0.05,23.9,0)" xlink:href="#M"/><use transform="matrix(0.05,0,0,0.05,33.9,0)" xlink:href="#L"/><use transform="matrix(0.05,0,0,0.05,37.85,0)" xlink:href="#N"/><use transform="matrix(0.05,0,0,0.05,47.85,0)" xlink:href="#O"/><use transform="matrix(0.05,0,0,0.05,57.85,0)" xlink:href="#P"/></g><path fill="#303030" d="M135-143c-3-34-86-38-87 0 15 53 115 12 119 90S17 21 10-45l28-5c4 36 97 45 98 0-10-56-113-15-118-90-4-57 82-63 122-42 12 7 21 19 24 35" id="Q"/><path fill="#303030" d="M59-47c-2 24 18 29 38 22v24C64 9 27 4 27-40v-127H5v-23h24l9-43h21v43h35v23H59v120" id="R"/><g id="i"><use transform="matrix(0.05,0,0,0.05,0,0)" xlink:href="#P"/><use transform="matrix(0.05,0,0,0.05,3.95,0)" xlink:href="#L"/><use transform="matrix(0.05,0,0,0.05,7.9,0)" xlink:href="#Q"/><use transform="matrix(0.05,0,0,0.05,16.9,0)" xlink:href="#R"/></g><path fill="#303030" d="M100-194c62-1 85 37 85 99 1 63-27 99-86 99S16-35 15-95c0-66 28-99 85-99zM99-20c44 1 53-31 53-75 0-43-8-75-51-75s-53 32-53 75 10 74 51 75" id="S"/><path fill="#303030" d="M101-234c-31-9-42 10-38 44h38v23H63V0H32v-167H5v-23h27c-7-52 17-82 69-68v24" id="T"/><g id="j"><use transform="matrix(0.05,0,0,0.05,0,0)" xlink:href="#S"/><use transform="matrix(0.05,0,0,0.05,10,0)" xlink:href="#T"/></g><path fill="#303030" d="M33 0v-248h34V0H33" id="U"/><g id="k"><use transform="matrix(0.05,0,0,0.05,0,0)" xlink:href="#U"/><use transform="matrix(0.05,0,0,0.05,5,0)" xlink:href="#N"/><use transform="matrix(0.05,0,0,0.05,15,0)" xlink:href="#R"/><use transform="matrix(0.05,0,0,0.05,20,0)" xlink:href="#Q"/></g><path fill="#303030" d="M190 0L58-211 59 0H30v-248h39L202-35l-2-213h31V0h-41" id="V"/><path fill="#303030" d="M206 0h-36l-40-164L89 0H53L-1-190h32L70-26l43-164h34l41 164 42-164h31" id="W"/><g id="l"><use transform="matrix(0.05,0,0,0.05,0,0)" xlink:href="#V"/><use transform="matrix(0.05,0,0,0.05,12.950000000000001,0)" xlink:href="#F"/><use transform="matrix(0.05,0,0,0.05,22.950000000000003,0)" xlink:href="#W"/></g><path fill="#303030" d="M230 0l2-204L168 0h-37L68-204 70 0H24v-248h70l56 185 57-185h69V0h-46" id="X"/><path fill="#303030" d="M133-34C117-15 103 5 69 4 32 3 11-16 11-54c-1-60 55-63 116-61 1-26-3-47-28-47-18 1-26 9-28 27l-52-2c7-38 36-58 82-57s74 22 75 68l1 82c-1 14 12 18 25 15v27c-30 8-71 5-69-32zm-48 3c29 0 43-24 42-57-32 0-66-3-65 30 0 17 8 27 23 27" id="Y"/><path fill="#303030" d="M135-194c53 0 70 44 70 98 0 56-19 98-73 100-31 1-45-17-59-34 3 33 2 69 2 105H25l-1-265h48c2 10 0 23 3 31 11-24 29-35 60-35zM114-30c33 0 39-31 40-66 0-38-9-64-40-64-56 0-55 130 0 130" id="Z"/><path fill="#303030" d="M25-224v-37h50v37H25zM25 0v-190h50V0H25" id="aa"/><path fill="#303030" d="M135-194c87-1 58 113 63 194h-50c-7-57 23-157-34-157-59 0-34 97-39 157H25l-1-190h47c2 12-1 28 3 38 12-26 28-41 61-42" id="ab"/><path fill="#303030" d="M195-6C206 82 75 100 31 46c-4-6-6-13-8-21l49-6c3 16 16 24 34 25 40 0 42-37 40-79-11 22-30 35-61 35-53 0-70-43-70-97 0-56 18-96 73-97 30 0 46 14 59 34l2-30h47zm-90-29c32 0 41-27 41-63 0-35-9-62-40-62-32 0-39 29-40 63 0 36 9 62 39 62" id="ac"/><g id="m"><use transform="matrix(0.05,0,0,0.05,0,0)" xlink:href="#X"/><use transform="matrix(0.05,0,0,0.05,14.950000000000001,0)" xlink:href="#Y"/><use transform="matrix(0.05,0,0,0.05,24.950000000000003,0)" xlink:href="#Z"/><use transform="matrix(0.05,0,0,0.05,35.900000000000006,0)" xlink:href="#Z"/><use transform="matrix(0.05,0,0,0.05,46.85000000000001,0)" xlink:href="#aa"/><use transform="matrix(0.05,0,0,0.05,51.85,0)" xlink:href="#ab"/><use transform="matrix(0.05,0,0,0.05,62.80000000000001,0)" xlink:href="#ac"/></g><path fill="#303030" d="M121-226c-27-7-43 5-38 36h38v33H83V0H34v-157H6v-33h28c-9-59 32-81 87-68v32" id="ad"/><path fill="#303030" d="M85 4C-2 5 27-109 22-190h50c7 57-23 150 33 157 60-5 35-97 40-157h50l1 190h-47c-2-12 1-28-3-38-12 25-28 42-61 42" id="ae"/><path fill="#303030" d="M190-63c-7 42-38 67-86 67-59 0-84-38-90-98-12-110 154-137 174-36l-49 2c-2-19-15-32-35-32-30 0-35 28-38 64-6 74 65 87 74 30" id="af"/><path fill="#303030" d="M115-3C79 11 28 4 28-45v-112H4v-33h27l15-45h31v45h36v33H77v99c-1 23 16 31 38 25v30" id="ag"/><path fill="#303030" d="M110-194c64 0 96 36 96 99 0 64-35 99-97 99-61 0-95-36-95-99 0-62 34-99 96-99zm-1 164c35 0 45-28 45-65 0-40-10-65-43-65-34 0-45 26-45 65 0 36 10 65 43 65" id="ah"/><g id="n"><use transform="matrix(0.05,0,0,0.05,0,0)" xlink:href="#ad"/><use transform="matrix(0.05,0,0,0.05,5.95,0)" xlink:href="#ae"/><use transform="matrix(0.05,0,0,0.05,16.900000000000002,0)" xlink:href="#ab"/><use transform="matrix(0.05,0,0,0.05,27.85,0)" xlink:href="#af"/><use transform="matrix(0.05,0,0,0.05,37.85,0)" xlink:href="#ag"/><use transform="matrix(0.05,0,0,0.05,43.800000000000004,0)" xlink:href="#aa"/><use transform="matrix(0.05,0,0,0.05,48.800000000000004,0)" xlink:href="#ah"/><use transform="matrix(0.05,0,0,0.05,59.75,0)" xlink:href="#ab"/></g><path fill="#303030" d="M109-170H84l-4-78h32zm-65 0H19l-4-78h33" id="ai"/><path fill="#303030" d="M197 0v-115H63V0H30v-248h33v105h134v-105h34V0h-34" id="aj"/><path fill="#303030" d="M30 0v-248h187v28H63v79h144v27H63v87h162V0H30" id="ak"/><path fill="#303030" d="M30 0v-248h33v221h125V0H30" id="al"/><g id="o"><use transform="matrix(0.06790123456790124,0,0,0.06790123456790124,0,0)" xlink:href="#ai"/><use transform="matrix(0.06790123456790124,0,0,0.06790123456790124,8.623456790123457,0)" xlink:href="#aj"/><use transform="matrix(0.06790123456790124,0,0,0.06790123456790124,26.20987654320988,0)" xlink:href="#ak"/><use transform="matrix(0.06790123456790124,0,0,0.06790123456790124,42.50617283950618,0)" xlink:href="#al"/><use transform="matrix(0.06790123456790124,0,0,0.06790123456790124,56.086419753086425,0)" xlink:href="#al"/><use transform="matrix(0.06790123456790124,0,0,0.06790123456790124,69.66666666666667,0)" xlink:href="#J"/></g><path fill="#303030" d="M266 0h-40l-56-210L115 0H75L2-248h35L96-30l15-64 43-154h32l59 218 59-218h35" id="am"/><path fill="#303030" d="M233-177c-1 41-23 64-60 70L243 0h-38l-65-103H63V0H30v-248c88 3 205-21 203 71zM63-129c60-2 137 13 137-47 0-61-80-42-137-45v92" id="an"/><path fill="#303030" d="M30-248c118-7 216 8 213 122C240-48 200 0 122 0H30v-248zM63-27c89 8 146-16 146-99s-60-101-146-95v194" id="ao"/><g id="p"><use transform="matrix(0.06790123456790124,0,0,0.06790123456790124,0,0)" xlink:href="#am"/><use transform="matrix(0.06790123456790124,0,0,0.06790123456790124,23.018518518518523,0)" xlink:href="#J"/><use transform="matrix(0.06790123456790124,0,0,0.06790123456790124,42.03086419753088,0)" xlink:href="#an"/><use transform="matrix(0.06790123456790124,0,0,0.06790123456790124,59.61728395061729,0)" xlink:href="#al"/><use transform="matrix(0.06790123456790124,0,0,0.06790123456790124,73.19753086419755,0)" xlink:href="#ao"/><use transform="matrix(0.06790123456790124,0,0,0.06790123456790124,90.78395061728396,0)" xlink:href="#ai"/></g><path fill="#303030" d="M232-93c-1 65-40 97-104 97C67 4 28-28 28-90v-158h33c8 89-33 224 67 224 102 0 64-133 71-224h33v155" id="ap"/><path fill="#303030" d="M115-194c55 1 70 41 70 98S169 2 115 4C84 4 66-9 55-30l1 105H24l-1-265h31l2 30c10-21 28-34 59-34zm-8 174c40 0 45-34 45-75s-6-73-45-74c-42 0-51 32-51 76 0 43 10 73 51 73" id="aq"/><g id="q"><use transform="matrix(0.06790123456790124,0,0,0.06790123456790124,0,0)" xlink:href="#R"/><use transform="matrix(0.06790123456790124,0,0,0.06790123456790124,6.790123456790124,0)" xlink:href="#S"/><use transform="matrix(0.06790123456790124,0,0,0.06790123456790124,20.370370370370374,0)" xlink:href="#ap"/><use transform="matrix(0.06790123456790124,0,0,0.06790123456790124,37.9567901234568,0)" xlink:href="#aq"/><use transform="matrix(0.06790123456790124,0,0,0.06790123456790124,51.537037037037045,0)" xlink:href="#aq"/><use transform="matrix(0.06790123456790124,0,0,0.06790123456790124,65.11728395061729,0)" xlink:href="#F"/><use transform="matrix(0.06790123456790124,0,0,0.06790123456790124,78.69753086419755,0)" xlink:href="#K"/></g><use transform="matrix(0.06790123456790124,0,0,0.06790123456790124,0,0)" xlink:href="#F" id="r"/><g id="s"><use transform="matrix(0.05,0,0,0.05,0,0)" xlink:href="#Q"/><use transform="matrix(0.05,0,0,0.05,9,0)" xlink:href="#R"/><use transform="matrix(0.05,0,0,0.05,14,0)" xlink:href="#K"/><use transform="matrix(0.05,0,0,0.05,19.95,0)" xlink:href="#L"/><use transform="matrix(0.05,0,0,0.05,23.9,0)" xlink:href="#N"/><use transform="matrix(0.05,0,0,0.05,33.9,0)" xlink:href="#M"/></g><g id="t"><use transform="matrix(0.06790123456790124,0,0,0.06790123456790124,0,0)" xlink:href="#ai"/><use transform="matrix(0.06790123456790124,0,0,0.06790123456790124,8.623456790123457,0)" xlink:href="#aj"/><use transform="matrix(0.06790123456790124,0,0,0.06790123456790124,26.20987654320988,0)" xlink:href="#F"/><use transform="matrix(0.06790123456790124,0,0,0.06790123456790124,39.79012345679013,0)" xlink:href="#P"/><use transform="matrix(0.06790123456790124,0,0,0.06790123456790124,45.15432098765432,0)" xlink:href="#P"/><use transform="matrix(0.06790123456790124,0,0,0.06790123456790124,50.51851851851852,0)" xlink:href="#S"/></g><path fill="#303030" d="M85-194c31 0 48 13 60 33l-1-100h32l1 261h-30c-2-10 0-23-3-31C134-8 116 4 85 4 32 4 16-35 15-94c0-66 23-100 70-100zm9 24c-40 0-46 34-46 75 0 40 6 74 45 74 42 0 51-32 51-76 0-42-9-74-50-73" id="ar"/><g id="u"><use transform="matrix(0.06790123456790124,0,0,0.06790123456790124,0,0)" xlink:href="#am"/><use transform="matrix(0.06790123456790124,0,0,0.06790123456790124,22.543209876543212,0)" xlink:href="#S"/><use transform="matrix(0.06790123456790124,0,0,0.06790123456790124,36.12345679012346,0)" xlink:href="#K"/><use transform="matrix(0.06790123456790124,0,0,0.06790123456790124,44.20370370370371,0)" xlink:href="#P"/><use transform="matrix(0.06790123456790124,0,0,0.06790123456790124,49.567901234567906,0)" xlink:href="#ar"/><use transform="matrix(0.06790123456790124,0,0,0.06790123456790124,63.14814814814815,0)" xlink:href="#ai"/></g></defs></g></svg>