<svg xmlns="http://www.w3.org/2000/svg" xmlns:xlink="http://www.w3.org/1999/xlink" xmlns:lucid="lucid" width="700" height="220"><g transform="translate(-380 -400)" lucid:page-tab-id="0_0"><path d="M440 483c0-1.66 1.34-3 3-3h154c1.66 0 3 1.34 3 3v114c0 1.66-1.34 3-3 3H443c-1.66 0-3-1.34-3-3z" stroke="#b2b2b2" stroke-width="4" fill="#e5e5e5"/><use xlink:href="#a" transform="matrix(1,0,0,1,445,485) translate(41.04938271604938 60.80555555555556)"/><path d="M860 483c0-1.66 1.34-3 3-3h154c1.66 0 3 1.34 3 3v114c0 1.66-1.34 3-3 3H863c-1.66 0-3-1.34-3-3z" stroke="#b2b2b2" stroke-width="4" fill="#e5e5e5"/><use xlink:href="#b" transform="matrix(1,0,0,1,865,485) translate(41.04938271604938 60.80555555555556)"/><path d="M680.6 482.65c.77-1.46 2.74-2.65 4.4-2.65h90c1.66 0 3.63 1.2 4.4 2.65l29.2 54.7c.77 1.46.77 3.84 0 5.3l-29.2 54.7c-.77 1.46-2.74 2.65-4.4 2.65h-90c-1.66 0-3.63-1.2-4.4-2.65l-29.2-54.7c-.77-1.46-.77-3.84 0-5.3z" stroke="#b2b2b2" stroke-width="4" fill="#e5e5e5"/><use xlink:href="#c" transform="matrix(1,0,0,1,655,485) translate(13.961790123456774 60.80555555555556)"/><use xlink:href="#d" transform="matrix(1,0,0,1,655,485) translate(50.49265432098765 60.80555555555556)"/><use xlink:href="#e" transform="matrix(1,0,0,1,655,485) translate(85.80129629629629 60.80555555555556)"/><use xlink:href="#f" transform="matrix(1,0,0,1,655,485) translate(106.17166666666667 60.80555555555556)"/><use xlink:href="#g" transform="matrix(1,0,0,1,655,485) translate(122.46796296296297 60.80555555555556)"/><path d="M400 423c0-1.66 1.34-3 3-3h234c1.66 0 3 1.34 3 3v54c0 1.66-1.34 3-3 3H403c-1.66 0-3-1.34-3-3z" stroke="#000" stroke-opacity="0" stroke-width="2" fill="#fff" fill-opacity="0"/><use xlink:href="#h" transform="matrix(1,0,0,1,405,425) translate(43.64999999999999 30.025)"/><use xlink:href="#i" transform="matrix(1,0,0,1,405,425) translate(110.45 30.025)"/><use xlink:href="#j" transform="matrix(1,0,0,1,405,425) translate(137.35000000000002 30.025)"/><use xlink:href="#k" transform="matrix(1,0,0,1,405,425) translate(157.35000000000002 30.025)"/><path d="M820 423c0-1.66 1.34-3 3-3h234c1.66 0 3 1.34 3 3v54c0 1.66-1.34 3-3 3H823c-1.66 0-3-1.34-3-3z" stroke="#000" stroke-opacity="0" stroke-width="2" fill="#fff" fill-opacity="0"/><use xlink:href="#l" transform="matrix(1,0,0,1,825,425) translate(56.599999999999994 30.025)"/><use xlink:href="#i" transform="matrix(1,0,0,1,825,425) translate(97.5 30.025)"/><use xlink:href="#j" transform="matrix(1,0,0,1,825,425) translate(124.4 30.025)"/><use xlink:href="#k" transform="matrix(1,0,0,1,825,425) translate(144.4 30.025)"/><path d="M603 540h27.4" stroke="#303030" stroke-width="2" fill="none"/><path d="M603.03 541H602v-2h1.03z" fill="#303030"/><path d="M645.66 540l-14.26 4.64v-9.28z" stroke="#303030" stroke-width="2" fill="#303030"/><path d="M812.1 540h27.4" stroke="#303030" stroke-width="2" fill="none"/><path d="M812.13 541h-1.08l.1-1.92-.02-.08h1z" fill="#303030"/><path d="M854.76 540l-14.26 4.64v-9.28z" stroke="#303030" stroke-width="2" fill="#303030"/><path d="M610 423c0-1.66 1.34-3 3-3h234c1.66 0 3 1.34 3 3v54c0 1.66-1.34 3-3 3H613c-1.66 0-3-1.34-3-3z" stroke="#000" stroke-opacity="0" stroke-width="2" fill="#fff" fill-opacity="0"/><g><use xlink:href="#m" transform="matrix(1,0,0,1,615,425) translate(40.27499999999999 30.025)"/><use xlink:href="#n" transform="matrix(1,0,0,1,615,425) translate(119.025 30.025)"/></g><defs><path fill="#303030" d="M26 75v-336h71v23H56V52h41v23H26" id="o"/><path fill="#303030" d="M27 0v-27h64v-190l-56 39v-29l58-41h29v221h61V0H27" id="p"/><path fill="#303030" d="M68-38c1 34 0 65-14 84H32c9-13 17-26 17-46H33v-38h35" id="q"/><path fill="#303030" d="M101-251c82-7 93 87 43 132L82-64C71-53 59-42 53-27h129V0H18c2-99 128-94 128-182 0-28-16-43-45-43s-46 15-49 41l-32-3c6-41 34-60 81-64" id="r"/><path fill="#303030" d="M126-127c33 6 58 20 58 59 0 88-139 92-164 29-3-8-5-16-6-25l32-3c6 27 21 44 54 44 32 0 52-15 52-46 0-38-36-46-79-43v-28c39 1 72-4 72-42 0-27-17-43-46-43-28 0-47 15-49 41l-32-3c6-42 35-63 81-64 48-1 79 21 79 65 0 36-21 52-52 59" id="s"/><path fill="#303030" d="M3 75V52h41v-290H3v-23h71V75H3" id="t"/><g id="a"><use transform="matrix(0.06790123456790124,0,0,0.06790123456790124,0,0)" xlink:href="#o"/><use transform="matrix(0.06790123456790124,0,0,0.06790123456790124,6.790123456790124,0)" xlink:href="#p"/><use transform="matrix(0.06790123456790124,0,0,0.06790123456790124,20.370370370370374,0)" xlink:href="#q"/><use transform="matrix(0.06790123456790124,0,0,0.06790123456790124,27.160493827160497,0)" xlink:href="#r"/><use transform="matrix(0.06790123456790124,0,0,0.06790123456790124,40.74074074074075,0)" xlink:href="#q"/><use transform="matrix(0.06790123456790124,0,0,0.06790123456790124,47.530864197530875,0)" xlink:href="#s"/><use transform="matrix(0.06790123456790124,0,0,0.06790123456790124,61.11111111111112,0)" xlink:href="#t"/></g><path fill="#303030" d="M155-56V0h-30v-56H8v-25l114-167h33v167h35v25h-35zm-30-156c-27 46-58 90-88 131h88v-131" id="u"/><path fill="#303030" d="M54-142c48-35 137-8 131 61C196 18 31 33 14-55l32-4c7 23 22 37 52 37 35-1 51-22 54-58 4-55-73-65-99-34H22l8-134h141v27H59" id="v"/><path fill="#303030" d="M110-160c48 1 74 30 74 79 0 53-28 85-80 85-65 0-83-55-86-122-5-90 50-162 133-122 14 7 22 21 27 39l-31 6c-5-40-67-38-82-6-9 19-15 44-15 74 11-20 30-34 60-33zm-7 138c34 0 49-23 49-58s-16-56-50-56c-29 0-50 16-49 49 1 36 15 65 50 65" id="w"/><g id="b"><use transform="matrix(0.06790123456790124,0,0,0.06790123456790124,0,0)" xlink:href="#o"/><use transform="matrix(0.06790123456790124,0,0,0.06790123456790124,6.790123456790124,0)" xlink:href="#u"/><use transform="matrix(0.06790123456790124,0,0,0.06790123456790124,20.370370370370374,0)" xlink:href="#q"/><use transform="matrix(0.06790123456790124,0,0,0.06790123456790124,27.160493827160497,0)" xlink:href="#v"/><use transform="matrix(0.06790123456790124,0,0,0.06790123456790124,40.74074074074075,0)" xlink:href="#q"/><use transform="matrix(0.06790123456790124,0,0,0.06790123456790124,47.530864197530875,0)" xlink:href="#w"/><use transform="matrix(0.06790123456790124,0,0,0.06790123456790124,61.11111111111112,0)" xlink:href="#t"/></g><path fill="#303030" d="M87 75C49 33 22-17 22-94c0-76 28-126 65-167h31c-38 41-64 92-64 168S80 34 118 75H87" id="x"/><path fill="#303030" d="M100-194c63 0 86 42 84 106H49c0 40 14 67 53 68 26 1 43-12 49-29l28 8c-11 28-37 45-77 45C44 4 14-33 15-96c1-61 26-98 85-98zm52 81c6-60-76-77-97-28-3 7-6 17-6 28h103" id="y"/><path fill="#303030" d="M33-261c38 41 65 92 65 168S71 34 33 75H2C39 34 66-17 66-93S39-220 2-261h31" id="z"/><g id="c"><use transform="matrix(0.06790123456790124,0,0,0.06790123456790124,0,0)" xlink:href="#x"/><use transform="matrix(0.06790123456790124,0,0,0.06790123456790124,8.080246913580249,0)" xlink:href="#y"/><use transform="matrix(0.06790123456790124,0,0,0.06790123456790124,21.660493827160497,0)" xlink:href="#z"/></g><path fill="#303030" d="M18-150v-26h174v26H18zm0 90v-26h174v26H18" id="A"/><path fill="#303030" d="M18-27v-27l151-64-151-65v-27l175 74v36" id="B"/><g id="d"><use transform="matrix(0.06790123456790124,0,0,0.06790123456790124,0,0)" xlink:href="#A"/><use transform="matrix(0.06790123456790124,0,0,0.06790123456790124,14.259259259259261,0)" xlink:href="#B"/></g><use transform="matrix(0.06790123456790124,0,0,0.06790123456790124,0,0)" xlink:href="#y" id="e"/><path fill="#303030" d="M80-196l47-18 7 23-49 13 32 44-20 13-27-46-27 45-21-12 33-44-49-13 8-23 47 19-2-53h23" id="C"/><use transform="matrix(0.06790123456790124,0,0,0.06790123456790124,0,0)" xlink:href="#C" id="f"/><use transform="matrix(0.06790123456790124,0,0,0.06790123456790124,0,0)" xlink:href="#r" id="g"/><path fill="#303030" d="M140-251c81 0 123 46 123 126C263-46 219 4 140 4 59 4 17-45 17-125s42-126 123-126zm0 227c63 0 89-41 89-101s-29-99-89-99c-61 0-89 39-89 99S79-25 140-24" id="D"/><path fill="#303030" d="M114-163C36-179 61-72 57 0H25l-1-190h30c1 12-1 29 2 39 6-27 23-49 58-41v29" id="E"/><path fill="#303030" d="M24-231v-30h32v30H24zM24 0v-190h32V0H24" id="F"/><path fill="#303030" d="M177-190C167-65 218 103 67 71c-23-6-38-20-44-43l32-5c15 47 100 32 89-28v-30C133-14 115 1 83 1 29 1 15-40 15-95c0-56 16-97 71-98 29-1 48 16 59 35 1-10 0-23 2-32h30zM94-22c36 0 50-32 50-73 0-42-14-75-50-75-39 0-46 34-46 75s6 73 46 73" id="G"/><path fill="#303030" d="M117-194c89-4 53 116 60 194h-32v-121c0-31-8-49-39-48C34-167 62-67 57 0H25l-1-190h30c1 10-1 24 2 32 11-22 29-35 61-36" id="H"/><path fill="#303030" d="M141-36C126-15 110 5 73 4 37 3 15-17 15-53c-1-64 63-63 125-63 3-35-9-54-41-54-24 1-41 7-42 31l-33-3c5-37 33-52 76-52 45 0 72 20 72 64v82c-1 20 7 32 28 27v20c-31 9-61-2-59-35zM48-53c0 20 12 33 32 33 41-3 63-29 60-74-43 2-92-5-92 41" id="I"/><path fill="#303030" d="M24 0v-261h32V0H24" id="J"/><g id="h"><use transform="matrix(0.05,0,0,0.05,0,0)" xlink:href="#D"/><use transform="matrix(0.05,0,0,0.05,14,0)" xlink:href="#E"/><use transform="matrix(0.05,0,0,0.05,19.95,0)" xlink:href="#F"/><use transform="matrix(0.05,0,0,0.05,23.9,0)" xlink:href="#G"/><use transform="matrix(0.05,0,0,0.05,33.9,0)" xlink:href="#F"/><use transform="matrix(0.05,0,0,0.05,37.85,0)" xlink:href="#H"/><use transform="matrix(0.05,0,0,0.05,47.85,0)" xlink:href="#I"/><use transform="matrix(0.05,0,0,0.05,57.85,0)" xlink:href="#J"/></g><path fill="#303030" d="M135-143c-3-34-86-38-87 0 15 53 115 12 119 90S17 21 10-45l28-5c4 36 97 45 98 0-10-56-113-15-118-90-4-57 82-63 122-42 12 7 21 19 24 35" id="K"/><path fill="#303030" d="M59-47c-2 24 18 29 38 22v24C64 9 27 4 27-40v-127H5v-23h24l9-43h21v43h35v23H59v120" id="L"/><g id="i"><use transform="matrix(0.05,0,0,0.05,0,0)" xlink:href="#J"/><use transform="matrix(0.05,0,0,0.05,3.95,0)" xlink:href="#F"/><use transform="matrix(0.05,0,0,0.05,7.9,0)" xlink:href="#K"/><use transform="matrix(0.05,0,0,0.05,16.9,0)" xlink:href="#L"/></g><path fill="#303030" d="M100-194c62-1 85 37 85 99 1 63-27 99-86 99S16-35 15-95c0-66 28-99 85-99zM99-20c44 1 53-31 53-75 0-43-8-75-51-75s-53 32-53 75 10 74 51 75" id="M"/><path fill="#303030" d="M101-234c-31-9-42 10-38 44h38v23H63V0H32v-167H5v-23h27c-7-52 17-82 69-68v24" id="N"/><g id="j"><use transform="matrix(0.05,0,0,0.05,0,0)" xlink:href="#M"/><use transform="matrix(0.05,0,0,0.05,10,0)" xlink:href="#N"/></g><path fill="#303030" d="M33 0v-248h34V0H33" id="O"/><g id="k"><use transform="matrix(0.05,0,0,0.05,0,0)" xlink:href="#O"/><use transform="matrix(0.05,0,0,0.05,5,0)" xlink:href="#H"/><use transform="matrix(0.05,0,0,0.05,15,0)" xlink:href="#L"/><use transform="matrix(0.05,0,0,0.05,20,0)" xlink:href="#K"/></g><path fill="#303030" d="M190 0L58-211 59 0H30v-248h39L202-35l-2-213h31V0h-41" id="P"/><path fill="#303030" d="M206 0h-36l-40-164L89 0H53L-1-190h32L70-26l43-164h34l41 164 42-164h31" id="Q"/><g id="l"><use transform="matrix(0.05,0,0,0.05,0,0)" xlink:href="#P"/><use transform="matrix(0.05,0,0,0.05,12.950000000000001,0)" xlink:href="#y"/><use transform="matrix(0.05,0,0,0.05,22.950000000000003,0)" xlink:href="#Q"/></g><path fill="#303030" d="M230 0l2-204L168 0h-37L68-204 70 0H24v-248h70l56 185 57-185h69V0h-46" id="R"/><path fill="#303030" d="M133-34C117-15 103 5 69 4 32 3 11-16 11-54c-1-60 55-63 116-61 1-26-3-47-28-47-18 1-26 9-28 27l-52-2c7-38 36-58 82-57s74 22 75 68l1 82c-1 14 12 18 25 15v27c-30 8-71 5-69-32zm-48 3c29 0 43-24 42-57-32 0-66-3-65 30 0 17 8 27 23 27" id="S"/><path fill="#303030" d="M135-194c53 0 70 44 70 98 0 56-19 98-73 100-31 1-45-17-59-34 3 33 2 69 2 105H25l-1-265h48c2 10 0 23 3 31 11-24 29-35 60-35zM114-30c33 0 39-31 40-66 0-38-9-64-40-64-56 0-55 130 0 130" id="T"/><path fill="#303030" d="M25-224v-37h50v37H25zM25 0v-190h50V0H25" id="U"/><path fill="#303030" d="M135-194c87-1 58 113 63 194h-50c-7-57 23-157-34-157-59 0-34 97-39 157H25l-1-190h47c2 12-1 28 3 38 12-26 28-41 61-42" id="V"/><path fill="#303030" d="M195-6C206 82 75 100 31 46c-4-6-6-13-8-21l49-6c3 16 16 24 34 25 40 0 42-37 40-79-11 22-30 35-61 35-53 0-70-43-70-97 0-56 18-96 73-97 30 0 46 14 59 34l2-30h47zm-90-29c32 0 41-27 41-63 0-35-9-62-40-62-32 0-39 29-40 63 0 36 9 62 39 62" id="W"/><g id="m"><use transform="matrix(0.05,0,0,0.05,0,0)" xlink:href="#R"/><use transform="matrix(0.05,0,0,0.05,14.950000000000001,0)" xlink:href="#S"/><use transform="matrix(0.05,0,0,0.05,24.950000000000003,0)" xlink:href="#T"/><use transform="matrix(0.05,0,0,0.05,35.900000000000006,0)" xlink:href="#T"/><use transform="matrix(0.05,0,0,0.05,46.85000000000001,0)" xlink:href="#U"/><use transform="matrix(0.05,0,0,0.05,51.85,0)" xlink:href="#V"/><use transform="matrix(0.05,0,0,0.05,62.80000000000001,0)" xlink:href="#W"/></g><path fill="#303030" d="M121-226c-27-7-43 5-38 36h38v33H83V0H34v-157H6v-33h28c-9-59 32-81 87-68v32" id="X"/><path fill="#303030" d="M85 4C-2 5 27-109 22-190h50c7 57-23 150 33 157 60-5 35-97 40-157h50l1 190h-47c-2-12 1-28-3-38-12 25-28 42-61 42" id="Y"/><path fill="#303030" d="M190-63c-7 42-38 67-86 67-59 0-84-38-90-98-12-110 154-137 174-36l-49 2c-2-19-15-32-35-32-30 0-35 28-38 64-6 74 65 87 74 30" id="Z"/><path fill="#303030" d="M115-3C79 11 28 4 28-45v-112H4v-33h27l15-45h31v45h36v33H77v99c-1 23 16 31 38 25v30" id="aa"/><path fill="#303030" d="M110-194c64 0 96 36 96 99 0 64-35 99-97 99-61 0-95-36-95-99 0-62 34-99 96-99zm-1 164c35 0 45-28 45-65 0-40-10-65-43-65-34 0-45 26-45 65 0 36 10 65 43 65" id="ab"/><g id="n"><use transform="matrix(0.05,0,0,0.05,0,0)" xlink:href="#X"/><use transform="matrix(0.05,0,0,0.05,5.95,0)" xlink:href="#Y"/><use transform="matrix(0.05,0,0,0.05,16.900000000000002,0)" xlink:href="#V"/><use transform="matrix(0.05,0,0,0.05,27.85,0)" xlink:href="#Z"/><use transform="matrix(0.05,0,0,0.05,37.85,0)" xlink:href="#aa"/><use transform="matrix(0.05,0,0,0.05,43.800000000000004,0)" xlink:href="#U"/><use transform="matrix(0.05,0,0,0.05,48.800000000000004,0)" xlink:href="#ab"/><use transform="matrix(0.05,0,0,0.05,59.75,0)" xlink:href="#V"/></g></defs></g></svg>